<svg width="414" height="92" viewBox="0 0 414 92" fill="none" xmlns="http://www.w3.org/2000/svg">
<path d="M17.708 71.8807V26.2932H0V17.8066H44.574V26.2932H26.866V71.8807H17.708Z" fill="#E0DEE7"/>
<path d="M43.4447 71.8807V31.3251H51.5387V41.2011L50.5507 39.9244C51.0574 38.5725 51.7287 37.3459 52.5647 36.2443C53.426 35.1178 54.452 34.1915 55.6427 33.4655C56.656 32.7896 57.7707 32.2639 58.9867 31.8884C60.228 31.4878 61.4947 31.25 62.7867 31.1749C64.0787 31.0748 65.3327 31.1248 66.5487 31.3251V39.7742C65.3327 39.4237 63.9267 39.311 62.3307 39.4362C60.76 39.5614 59.3414 39.9995 58.0747 40.7505C56.808 41.4264 55.7694 42.2901 54.9587 43.3416C54.1734 44.393 53.5907 45.5947 53.2107 46.9465C52.8307 48.2733 52.6407 49.7128 52.6407 51.2649V71.8807H43.4447Z" fill="#E0DEE7"/>
<path d="M71.1402 25.1667V16.8678H80.2982V25.1667H71.1402ZM71.1402 71.8807V31.3251H80.2982V71.8807H71.1402Z" fill="#E0DEE7"/>
<path d="M107.983 73.0072C103.98 73.0072 100.624 72.0684 97.9129 70.1908C95.2023 68.3133 93.1629 65.7598 91.7949 62.5303C90.4269 59.2759 89.7429 55.6334 89.7429 51.6029C89.7429 47.5223 90.4269 43.8673 91.7949 40.6379C93.1629 37.4084 95.1643 34.8675 97.7989 33.0149C100.459 31.1373 103.74 30.1986 107.641 30.1986C111.517 30.1986 114.874 31.1373 117.711 33.0149C120.574 34.8675 122.79 37.4084 124.361 40.6379C125.932 43.8423 126.717 47.4973 126.717 51.6029C126.717 55.6584 125.944 59.3009 124.399 62.5303C122.854 65.7598 120.675 68.3133 117.863 70.1908C115.051 72.0684 111.758 73.0072 107.983 73.0072ZM88.1849 71.8807V17.8066H97.4189V43.4167H96.2789V71.8807H88.1849ZM106.577 64.8961C108.958 64.8961 110.922 64.3078 112.467 63.1312C114.012 61.9546 115.152 60.3649 115.887 58.3621C116.647 56.3344 117.027 54.0813 117.027 51.6029C117.027 49.1495 116.647 46.9215 115.887 44.9187C115.127 42.8909 113.949 41.2888 112.353 40.1121C110.757 38.9105 108.73 38.3097 106.273 38.3097C103.942 38.3097 102.042 38.8729 100.573 39.9995C99.1036 41.101 98.0143 42.6531 97.3049 44.6559C96.6209 46.6336 96.2789 48.9492 96.2789 51.6029C96.2789 54.2315 96.6209 56.5472 97.3049 58.5499C98.0143 60.5526 99.1163 62.1173 100.611 63.2438C102.131 64.3453 104.12 64.8961 106.577 64.8961Z" fill="#E0DEE7"/>
<path d="M147.063 73.0448C144.023 73.0448 141.515 72.5441 139.539 71.5427C137.563 70.5413 135.992 69.2646 134.827 67.7124C133.662 66.1603 132.8 64.5081 132.243 62.7557C131.686 61.0033 131.318 59.351 131.141 57.7989C130.989 56.2217 130.913 54.945 130.913 53.9686V31.3251H140.185V50.8519C140.185 52.1036 140.274 53.518 140.451 55.0952C140.628 56.6473 141.034 58.1493 141.667 59.6013C142.326 61.0283 143.288 62.2049 144.555 63.1312C145.847 64.0574 147.582 64.5206 149.761 64.5206C150.926 64.5206 152.079 64.3328 153.219 63.9573C154.359 63.5818 155.385 62.9434 156.297 62.0422C157.234 61.1159 157.982 59.8517 158.539 58.2495C159.096 56.6473 159.375 54.6195 159.375 52.1662L164.809 54.4568C164.809 57.9115 164.125 61.0408 162.757 63.8447C161.414 66.6485 159.426 68.8891 156.791 70.5664C154.156 72.2186 150.914 73.0448 147.063 73.0448ZM160.477 71.8807V59.3009H159.375V31.3251H168.571V71.8807H160.477Z" fill="#E0DEE7"/>
<path d="M204.213 71.8807V52.3539C204.213 51.0772 204.125 49.6627 203.947 48.1106C203.77 46.5585 203.352 45.0689 202.693 43.642C202.06 42.19 201.097 41.0009 199.805 40.0746C198.539 39.1483 196.816 38.6852 194.637 38.6852C193.472 38.6852 192.319 38.8729 191.179 39.2485C190.039 39.624 189.001 40.2749 188.063 41.2011C187.151 42.1024 186.417 43.3541 185.859 44.9563C185.302 46.5334 185.023 48.5612 185.023 51.0396L179.589 48.749C179.589 45.2942 180.261 42.165 181.603 39.3611C182.971 36.5573 184.973 34.3292 187.607 32.677C190.242 30.9997 193.485 30.161 197.335 30.161C200.375 30.161 202.883 30.6617 204.859 31.6631C206.835 32.6644 208.406 33.9412 209.571 35.4933C210.737 37.0454 211.598 38.6977 212.155 40.4501C212.713 42.2025 213.067 43.8673 213.219 45.4444C213.397 46.9966 213.485 48.2608 213.485 49.2371V71.8807H204.213ZM175.751 71.8807V31.3251H183.921V43.9048H185.023V71.8807H175.751Z" fill="#E0DEE7"/>
<path d="M237.971 73.0072C233.817 73.0072 230.169 72.1185 227.027 70.3411C223.886 68.5636 221.429 66.0977 219.655 62.9434C217.907 59.7891 217.033 56.1591 217.033 52.0535C217.033 47.6224 217.895 43.7797 219.617 40.5252C221.34 37.2457 223.734 34.7047 226.799 32.9023C229.865 31.0998 233.411 30.1986 237.439 30.1986C241.695 30.1986 245.305 31.1874 248.269 33.1651C251.259 35.1178 253.475 37.8841 254.919 41.464C256.363 45.0439 256.908 49.2622 256.553 54.1188H247.471V50.8143C247.446 46.4083 246.661 43.1914 245.115 41.1636C243.57 39.1358 241.138 38.1219 237.819 38.1219C234.07 38.1219 231.283 39.2735 229.459 41.5766C227.635 43.8548 226.723 47.1968 226.723 51.6029C226.723 55.7085 227.635 58.8879 229.459 61.1409C231.283 63.394 233.943 64.5206 237.439 64.5206C239.694 64.5206 241.632 64.0324 243.253 63.0561C244.9 62.0547 246.167 60.6152 247.053 58.7377L256.097 61.4414C254.527 65.0964 252.095 67.9378 248.801 69.9655C245.533 71.9933 241.923 73.0072 237.971 73.0072ZM223.835 54.1188V47.2845H252.069V54.1188H223.835Z" fill="#E0DEE7"/>
<path d="M261.648 71.8807V62.6055H271.034V71.8807H261.648Z" fill="#E0DEE7"/>
<path d="M302.894 43.7922C308.467 44.5432 312.445 46.1454 314.826 48.5988C317.207 51.0021 318.398 53.906 318.398 57.3107C318.398 60.1646 317.663 62.6931 316.194 64.8961C314.725 67.0991 312.622 68.8265 309.886 70.0782C307.15 71.2798 303.907 71.8807 300.158 71.8807C298.79 71.8807 297.625 71.8556 296.662 71.8056C293.419 71.7054 290.227 71.6553 287.086 71.6553C282.931 71.6553 279.79 71.7305 277.662 71.8807V70.3786C279.486 70.2785 280.803 70.0782 281.614 69.7778C282.475 69.4774 283.058 68.9016 283.362 68.0504C283.666 67.1992 283.818 65.8224 283.818 63.9198V26.6687C283.818 24.7661 283.666 23.3892 283.362 22.5381C283.058 21.6869 282.475 21.1111 281.614 20.8107C280.803 20.5103 279.486 20.31 277.662 20.2099V18.7078C279.79 18.858 282.881 18.9331 286.934 18.9331L295.142 18.858C296.105 18.808 297.194 18.7829 298.41 18.7829C303.578 18.7829 307.53 19.8594 310.266 22.0123C313.053 24.1653 314.446 27.0192 314.446 30.5741C314.446 33.4781 313.509 36.0816 311.634 38.3848C309.81 40.6879 306.897 42.4403 302.894 43.642V43.7922ZM296.51 20.2099C294.939 20.2099 293.749 20.3851 292.938 20.7356C292.178 21.0861 291.646 21.7119 291.342 22.6132C291.038 23.5144 290.886 24.8663 290.886 26.6687V43.642H295.978C300.133 43.642 303.021 42.5405 304.642 40.3375C306.314 38.0844 307.15 35.1053 307.15 31.4002C307.15 27.6451 306.314 24.8412 304.642 22.9887C302.97 21.1361 300.259 20.2099 296.51 20.2099ZM296.586 70.1533C306.061 70.1533 310.798 65.7723 310.798 57.0103C310.798 53.0549 309.709 50.0508 307.53 47.9979C305.402 45.9451 301.982 44.9187 297.27 44.9187H290.886V63.9198C290.886 65.7222 291.038 67.049 291.342 67.9002C291.646 68.7514 292.178 69.3522 292.938 69.7027C293.749 70.0031 294.965 70.1533 296.586 70.1533Z" fill="#E0DEE7"/>
<path d="M332.021 64.8961C332.021 66.9489 332.452 68.3759 333.313 69.177C334.175 69.928 335.669 70.3035 337.797 70.3035V71.8807C333.136 71.6804 330.071 71.5802 328.601 71.5802C327.132 71.5802 324.067 71.6804 319.405 71.8807V70.3035C321.533 70.3035 323.028 69.928 323.889 69.177C324.751 68.3759 325.181 66.9489 325.181 64.8961V22.0123C325.181 19.7092 324.751 18.0319 323.889 16.9805C323.028 15.929 321.533 15.4033 319.405 15.4033V13.8261C320.976 13.9763 322.547 14.0514 324.117 14.0514C327.309 14.0514 329.944 13.701 332.021 13V64.8961Z" fill="#E0DEE7"/>
<path d="M356.141 32.1512C361.309 32.1512 365.464 33.8536 368.605 37.2582C371.797 40.6128 373.393 45.7198 373.393 52.5792C373.393 59.4386 371.797 64.5456 368.605 67.9002C365.464 71.2548 361.309 72.9321 356.141 72.9321C350.973 72.9321 346.793 71.2548 343.601 67.9002C340.46 64.5456 338.889 59.4386 338.889 52.5792C338.889 45.7198 340.46 40.6128 343.601 37.2582C346.793 33.8536 350.973 32.1512 356.141 32.1512ZM356.141 33.6533C353.101 33.6533 350.695 35.2054 348.921 38.3097C347.148 41.3639 346.261 46.1204 346.261 52.5792C346.261 59.0381 347.148 63.7946 348.921 66.8488C350.695 69.903 353.101 71.43 356.141 71.43C359.181 71.43 361.588 69.903 363.361 66.8488C365.135 63.7946 366.021 59.0381 366.021 52.5792C366.021 46.1204 365.135 41.3639 363.361 38.3097C361.588 35.2054 359.181 33.6533 356.141 33.6533Z" fill="#E0DEE7"/>
<path d="M409.33 39.9619C408.418 39.9619 407.633 39.6615 406.974 39.0607C406.366 38.4599 406.062 37.5837 406.062 36.4321C406.062 35.4307 406.315 34.2792 406.822 32.9774C405.505 33.5281 404.466 34.154 403.706 34.8549C402.946 35.5058 402.262 36.332 401.654 37.3333C402.819 39.0857 403.402 41.3138 403.402 44.0175C403.402 47.9729 402.186 50.952 399.754 52.9547C397.322 54.9074 394.105 55.8837 390.102 55.8837H390.026C388.354 56.8351 387.087 57.7113 386.226 58.5123C385.365 59.3134 384.934 60.2147 384.934 61.2161C384.934 62.8182 386.15 63.6193 388.582 63.6193H398.082C401.527 63.6193 404.365 64.3704 406.594 65.8724C408.874 67.3244 410.014 69.5274 410.014 72.4815C410.014 74.8848 409.229 77.1128 407.658 79.1656C406.087 81.2185 403.782 82.8707 400.742 84.1224C397.702 85.3741 394.029 86 389.722 86C385.314 86 381.615 85.3241 378.626 83.9722C375.687 82.6704 374.218 80.7178 374.218 78.1142C374.218 76.4119 374.902 74.9348 376.27 73.6831C377.689 72.4314 379.639 71.4551 382.122 70.7541L382.578 71.9558C381.463 72.3062 380.577 73.0072 379.918 74.0586C379.259 75.1101 378.93 76.2867 378.93 77.5885C378.93 79.8916 379.969 81.644 382.046 82.8457C384.174 84.0974 387.011 84.7233 390.558 84.7233C394.459 84.7233 397.803 83.9722 400.59 82.4702C403.377 81.0182 404.77 78.7401 404.77 75.6358C404.77 73.8333 404.111 72.4314 402.794 71.43C401.527 70.4287 399.247 69.928 395.954 69.928H390.33C387.341 69.928 384.934 69.5525 383.11 68.8014C381.337 68.0504 380.45 66.5484 380.45 64.2953C380.45 62.7431 381.007 61.2661 382.122 59.8642C383.287 58.4623 385.187 57.0854 387.822 55.7335C384.478 55.3831 381.793 54.2315 379.766 52.2788C377.79 50.3261 376.802 47.5724 376.802 44.0175C376.802 40.0621 378.018 37.108 380.45 35.1554C382.882 33.1526 386.099 32.1512 390.102 32.1512C394.865 32.1512 398.386 33.453 400.666 36.0566C401.629 34.7047 402.845 33.6032 404.314 32.7521C405.783 31.8508 407.253 31.4002 408.722 31.4002C410.039 31.4002 411.103 31.7757 411.914 32.5267C412.725 33.2778 413.13 34.3543 413.13 35.7562C413.13 37.1581 412.725 38.2095 411.914 38.9105C411.154 39.6115 410.293 39.9619 409.33 39.9619ZM390.102 54.5319C392.129 54.5319 393.649 53.7558 394.662 52.2037C395.726 50.6015 396.258 47.8728 396.258 44.0175C396.258 40.1622 395.726 37.4585 394.662 35.9064C393.649 34.3042 392.129 33.5031 390.102 33.5031C388.075 33.5031 386.53 34.3042 385.466 35.9064C384.453 37.4585 383.946 40.1622 383.946 44.0175C383.946 47.8728 384.453 50.6015 385.466 52.2037C386.53 53.7558 388.075 54.5319 390.102 54.5319Z" fill="#E0DEE7"/>
</svg>
