<svg width="24" height="24" viewBox="0 0 24 24" fill="none" xmlns="http://www.w3.org/2000/svg">
<g clip-path="url(#clip0_428_162)">
<path d="M18.0303 16.6099L22.3103 20.8919L20.8903 22.3019L16.6083 18.0119V18.0019C15.0083 19.2719 13.0283 19.9719 10.9883 19.9619C6.02028 19.9619 1.98828 15.9299 1.98828 10.9619C1.98828 5.99391 6.02028 1.96191 10.9883 1.96191C15.9563 1.96191 19.9883 5.99391 19.9883 10.9619L19.9783 10.9519C19.9783 12.9919 19.2783 14.9719 18.0083 16.5619L18.0303 16.6099ZM16.0203 15.8599H16.0103C17.2703 14.5499 17.9803 12.7999 17.9803 10.9799C17.9803 7.10991 14.8403 3.97991 10.9803 3.97991C7.11028 3.97991 3.98028 7.10991 3.98028 10.9799C3.98028 14.8399 7.11028 17.9799 10.9803 17.9799L10.9703 17.9789C12.7903 17.9789 14.5303 17.2689 15.8403 15.9989L15.9903 15.8489L16.0203 15.8599Z" fill="#E0DEE7"/>
</g>
<defs>
<clipPath id="clip0_428_162">
<rect width="24" height="24" fill="white"/>
</clipPath>
</defs>
</svg>
